<svg version="1.2" xmlns="http://www.w3.org/2000/svg" viewBox="0 0 58 32" width="58" height="32">
	<title>barcode-svg</title>
	<style>
		.s0 { fill: #d7dbe0 } 
		.s1 { fill: #5c546a } 
		.s2 { fill: #8a8895 } 
	</style>
	<path id="Shape 1" class="s0" d="m4 0c2.5 0 47.2 0 50 0 2.8 0 4 1 4 4 0 3 0 21.8 0 24 0 2.9-1 4-4 4-3 0-47.6 0-50 0-2.9 0-4-1-4-4 0-3 0-24 0-24 0-3.1 1-4 4-4z"/>
	<g id="Layer">
		<g id="Layer">
		</g>
		<g id="Layer">
			<g id="Layer">
				<path id="Layer" class="s1" d="m9.8 26.8c-0.5 0-0.8-0.4-0.8-0.8v-20c0-0.4 0.3-0.8 0.8-0.8 0.4 0 0.7 0.4 0.7 0.8v20c0 0.4-0.3 0.8-0.7 0.8z"/>
			</g>
		</g>
		<g id="Layer">
			<g id="Layer">
				<path id="Layer" class="s1" d="m12.8 26.8c-0.4 0-0.7-0.4-0.7-0.8v-20c0-0.4 0.3-0.8 0.7-0.8 0.5 0 0.8 0.4 0.8 0.8v20c0 0.4-0.3 0.8-0.8 0.8z"/>
			</g>
		</g>
		<g id="Layer">
			<g id="Layer">
				<path id="Layer" class="s1" d="m45.2 26.8c-0.5 0-0.8-0.4-0.8-0.8v-20c0-0.4 0.3-0.8 0.8-0.8 0.4 0 0.7 0.4 0.7 0.8v20c0 0.4-0.3 0.8-0.7 0.8z"/>
			</g>
		</g>
		<g id="Layer">
			<g id="Layer">
				<path id="Layer" class="s1" d="m48.2 26.8c-0.4 0-0.7-0.4-0.7-0.8v-20c0-0.4 0.3-0.8 0.7-0.8 0.5 0 0.8 0.4 0.8 0.8v20c0 0.4-0.3 0.8-0.8 0.8z"/>
			</g>
		</g>
		<g id="Layer">
			<g id="Layer">
				<path id="Layer" class="s1" d="m15.9 22.2c-0.4 0-0.7-0.4-0.7-0.8v-15.4c0-0.4 0.3-0.8 0.7-0.8 0.4 0 0.8 0.4 0.8 0.8v15.4c0 0.4-0.4 0.8-0.8 0.8z"/>
			</g>
		</g>
		<g id="Layer">
			<g id="Layer">
				<path id="Layer" class="s1" d="m18.2 22.2c-0.4 0-0.7-0.4-0.7-0.8v-15.4c0-0.4 0.3-0.8 0.7-0.8 0.5 0 0.8 0.4 0.8 0.8v15.4c0 0.4-0.3 0.8-0.8 0.8z"/>
			</g>
		</g>
		<g id="Layer">
			<g id="Layer">
				<path id="Layer" class="s1" d="m21.3 22.2c-0.4 0-0.8-0.4-0.8-0.8v-15.4c0-0.4 0.4-0.8 0.8-0.8 0.4 0 0.8 0.4 0.8 0.8v15.4c0 0.4-0.4 0.8-0.8 0.8z"/>
			</g>
		</g>
		<g id="Layer">
			<g id="Layer">
				<path id="Layer" class="s1" d="m24.4 22.2c-0.4 0-0.8-0.4-0.8-0.8v-15.4c0-0.4 0.4-0.8 0.8-0.8 0.4 0 0.8 0.4 0.8 0.8v15.4c0 0.4-0.4 0.8-0.8 0.8z"/>
			</g>
		</g>
		<g id="Layer">
			<g id="Layer">
				<path id="Layer" class="s1" d="m30.5 22.2c-0.4 0-0.7-0.4-0.7-0.8v-15.4c0-0.4 0.3-0.8 0.7-0.8 0.5 0 0.8 0.4 0.8 0.8v15.4c0 0.4-0.3 0.8-0.8 0.8z"/>
			</g>
		</g>
		<g id="Layer">
			<g id="Layer">
				<path id="Layer" class="s1" d="m32.8 22.2c-0.4 0-0.7-0.4-0.7-0.8v-15.4c0-0.4 0.3-0.8 0.7-0.8 0.5 0 0.8 0.4 0.8 0.8v15.4c0 0.4-0.3 0.8-0.8 0.8z"/>
			</g>
		</g>
		<g id="Layer">
			<g id="Layer">
				<path id="Layer" class="s1" d="m35.9 22.2c-0.4 0-0.7-0.4-0.7-0.8v-15.4c0-0.4 0.3-0.8 0.7-0.8 0.4 0 0.8 0.4 0.8 0.8v15.4c0 0.4-0.4 0.8-0.8 0.8z"/>
			</g>
		</g>
		<g id="Layer">
			<g id="Layer">
				<path id="Layer" class="s1" d="m39 22.2c-0.4 0-0.8-0.4-0.8-0.8v-15.4c0-0.4 0.4-0.8 0.8-0.8 0.4 0 0.8 0.4 0.8 0.8v15.4c0 0.4-0.4 0.8-0.8 0.8z"/>
			</g>
		</g>
		<g id="Layer">
			<g id="Layer">
				<path id="Layer" class="s1" d="m41.3 22.2c-0.4 0-0.8-0.4-0.8-0.8v-15.4c0-0.4 0.4-0.8 0.8-0.8 0.4 0 0.8 0.4 0.8 0.8v15.4c0 0.4-0.4 0.8-0.8 0.8z"/>
			</g>
		</g>
		<g id="Layer">
			<g id="Layer">
				<path id="Layer" class="s1" d="m28.2 22.2c-0.4 0-0.7-0.4-0.7-0.8v-15.4c0-0.4 0.3-0.8 0.7-0.8 0.5 0 0.8 0.4 0.8 0.8v15.4c0 0.4-0.3 0.8-0.8 0.8z"/>
			</g>
		</g>
		<g id="Layer">
			<g id="Layer">
				<path id="Layer" class="s2" d="m15.9 26.8c-0.4 0-0.7-0.4-0.7-0.8v-1.5c0-0.5 0.3-0.8 0.7-0.8 0.4 0 0.8 0.3 0.8 0.8v1.5c0 0.4-0.4 0.8-0.8 0.8z"/>
			</g>
		</g>
		<g id="Layer">
			<g id="Layer">
				<path id="Layer" class="s2" d="m18.2 26.8c-0.4 0-0.7-0.4-0.7-0.8v-1.5c0-0.5 0.3-0.8 0.7-0.8 0.5 0 0.8 0.3 0.8 0.8v1.5c0 0.4-0.3 0.8-0.8 0.8z"/>
			</g>
		</g>
		<g id="Layer">
			<g id="Layer">
				<path id="Layer" class="s2" d="m21.3 26.8c-0.4 0-0.8-0.4-0.8-0.8v-1.5c0-0.5 0.4-0.8 0.8-0.8 0.4 0 0.8 0.3 0.8 0.8v1.5c0 0.4-0.4 0.8-0.8 0.8z"/>
			</g>
		</g>
		<g id="Layer">
			<g id="Layer">
				<path id="Layer" class="s2" d="m24.4 26.8c-0.4 0-0.8-0.4-0.8-0.8v-1.5c0-0.5 0.4-0.8 0.8-0.8 0.4 0 0.8 0.3 0.8 0.8v1.5c0 0.4-0.4 0.8-0.8 0.8z"/>
			</g>
		</g>
		<g id="Layer">
			<g id="Layer">
				<path id="Layer" class="s2" d="m30.5 26.8c-0.4 0-0.7-0.4-0.7-0.8v-1.5c0-0.5 0.3-0.8 0.7-0.8 0.5 0 0.8 0.3 0.8 0.8v1.5c0 0.4-0.3 0.8-0.8 0.8z"/>
			</g>
		</g>
		<g id="Layer">
			<g id="Layer">
				<path id="Layer" class="s2" d="m32.8 26.8c-0.4 0-0.7-0.4-0.7-0.8v-1.5c0-0.5 0.3-0.8 0.7-0.8 0.5 0 0.8 0.3 0.8 0.8v1.5c0 0.4-0.3 0.8-0.8 0.8z"/>
			</g>
		</g>
		<g id="Layer">
			<g id="Layer">
				<path id="Layer" class="s2" d="m35.9 26.8c-0.4 0-0.7-0.4-0.7-0.8v-1.5c0-0.5 0.3-0.8 0.7-0.8 0.4 0 0.8 0.3 0.8 0.8v1.5c0 0.4-0.4 0.8-0.8 0.8z"/>
			</g>
		</g>
		<g id="Layer">
			<g id="Layer">
				<path id="Layer" class="s2" d="m39 26.8c-0.4 0-0.8-0.4-0.8-0.8v-1.5c0-0.5 0.4-0.8 0.8-0.8 0.4 0 0.8 0.3 0.8 0.8v1.5c0 0.4-0.4 0.8-0.8 0.8z"/>
			</g>
		</g>
		<g id="Layer">
			<g id="Layer">
				<path id="Layer" class="s2" d="m41.3 26.8c-0.4 0-0.8-0.4-0.8-0.8v-1.5c0-0.5 0.4-0.8 0.8-0.8 0.4 0 0.8 0.3 0.8 0.8v1.5c0 0.4-0.4 0.8-0.8 0.8z"/>
			</g>
		</g>
		<g id="Layer">
			<g id="Layer">
				<path id="Layer" class="s2" d="m28.2 26.8c-0.4 0-0.7-0.4-0.7-0.8v-1.5c0-0.5 0.3-0.8 0.7-0.8 0.5 0 0.8 0.3 0.8 0.8v1.5c0 0.4-0.3 0.8-0.8 0.8z"/>
			</g>
		</g>
	</g>
</svg>