<?xml version="1.0" encoding="iso-8859-1"?>
<!-- Generator: Adobe Illustrator 19.0.0, SVG Export Plug-In . SVG Version: 6.00 Build 0)  -->
<svg version="1.1" id="Capa_1" xmlns="http://www.w3.org/2000/svg" xmlns:xlink="http://www.w3.org/1999/xlink" x="0px" y="0px"
	 viewBox="0 0 512 512" style="enable-background:new 0 0 512 512;" xml:space="preserve">
<g>
	<g>
		<path style="fill:#D7DBE0;" d="M496,408H16c-8.837,0-16-7.163-16-16V120c0-8.837,7.163-16,16-16h480c8.837,0,16,7.163,16,16v272
			C512,400.837,504.837,408,496,408z"/>
	</g>
	<g>
		<g>
			<path style="fill:#5C546A;" d="M56,368c-4.422,0-8-3.578-8-8V152c0-4.422,3.578-8,8-8s8,3.578,8,8v208
				C64,364.422,60.422,368,56,368z"/>
		</g>
	</g>
	<g>
		<g>
			<path style="fill:#5C546A;" d="M88,368c-4.422,0-8-3.578-8-8V152c0-4.422,3.578-8,8-8s8,3.578,8,8v208
				C96,364.422,92.422,368,88,368z"/>
		</g>
	</g>
	<g>
		<g>
			<path style="fill:#5C546A;" d="M424,368c-4.422,0-8-3.578-8-8V152c0-4.422,3.578-8,8-8s8,3.578,8,8v208
				C432,364.422,428.422,368,424,368z"/>
		</g>
	</g>
	<g>
		<g>
			<path style="fill:#5C546A;" d="M456,368c-4.422,0-8-3.578-8-8V152c0-4.422,3.578-8,8-8s8,3.578,8,8v208
				C464,364.422,460.422,368,456,368z"/>
		</g>
	</g>
	<g>
		<g>
			<path style="fill:#5C546A;" d="M120,320c-4.422,0-8-3.578-8-8V152c0-4.422,3.578-8,8-8s8,3.578,8,8v160
				C128,316.422,124.422,320,120,320z"/>
		</g>
	</g>
	<g>
		<g>
			<path style="fill:#5C546A;" d="M144,320c-4.422,0-8-3.578-8-8V152c0-4.422,3.578-8,8-8s8,3.578,8,8v160
				C152,316.422,148.422,320,144,320z"/>
		</g>
	</g>
	<g>
		<g>
			<path style="fill:#5C546A;" d="M176,320c-4.422,0-8-3.578-8-8V152c0-4.422,3.578-8,8-8s8,3.578,8,8v160
				C184,316.422,180.422,320,176,320z"/>
		</g>
	</g>
	<g>
		<g>
			<path style="fill:#5C546A;" d="M208,320c-4.422,0-8-3.578-8-8V152c0-4.422,3.578-8,8-8s8,3.578,8,8v160
				C216,316.422,212.422,320,208,320z"/>
		</g>
	</g>
	<g>
		<g>
			<path style="fill:#5C546A;" d="M272,320c-4.422,0-8-3.578-8-8V152c0-4.422,3.578-8,8-8s8,3.578,8,8v160
				C280,316.422,276.422,320,272,320z"/>
		</g>
	</g>
	<g>
		<g>
			<path style="fill:#5C546A;" d="M296,320c-4.422,0-8-3.578-8-8V152c0-4.422,3.578-8,8-8s8,3.578,8,8v160
				C304,316.422,300.422,320,296,320z"/>
		</g>
	</g>
	<g>
		<g>
			<path style="fill:#5C546A;" d="M328,320c-4.422,0-8-3.578-8-8V152c0-4.422,3.578-8,8-8s8,3.578,8,8v160
				C336,316.422,332.422,320,328,320z"/>
		</g>
	</g>
	<g>
		<g>
			<path style="fill:#5C546A;" d="M360,320c-4.422,0-8-3.578-8-8V152c0-4.422,3.578-8,8-8s8,3.578,8,8v160
				C368,316.422,364.422,320,360,320z"/>
		</g>
	</g>
	<g>
		<g>
			<path style="fill:#5C546A;" d="M384,320c-4.422,0-8-3.578-8-8V152c0-4.422,3.578-8,8-8s8,3.578,8,8v160
				C392,316.422,388.422,320,384,320z"/>
		</g>
	</g>
	<g>
		<g>
			<path style="fill:#5C546A;" d="M248,320c-4.422,0-8-3.578-8-8V152c0-4.422,3.578-8,8-8s8,3.578,8,8v160
				C256,316.422,252.422,320,248,320z"/>
		</g>
	</g>
	<g>
		<g>
			<path style="fill:#8A8895;" d="M120,368c-4.422,0-8-3.578-8-8v-16c0-4.422,3.578-8,8-8s8,3.578,8,8v16
				C128,364.422,124.422,368,120,368z"/>
		</g>
	</g>
	<g>
		<g>
			<path style="fill:#8A8895;" d="M144,368c-4.422,0-8-3.578-8-8v-16c0-4.422,3.578-8,8-8s8,3.578,8,8v16
				C152,364.422,148.422,368,144,368z"/>
		</g>
	</g>
	<g>
		<g>
			<path style="fill:#8A8895;" d="M176,368c-4.422,0-8-3.578-8-8v-16c0-4.422,3.578-8,8-8s8,3.578,8,8v16
				C184,364.422,180.422,368,176,368z"/>
		</g>
	</g>
	<g>
		<g>
			<path style="fill:#8A8895;" d="M208,368c-4.422,0-8-3.578-8-8v-16c0-4.422,3.578-8,8-8s8,3.578,8,8v16
				C216,364.422,212.422,368,208,368z"/>
		</g>
	</g>
	<g>
		<g>
			<path style="fill:#8A8895;" d="M272,368c-4.422,0-8-3.578-8-8v-16c0-4.422,3.578-8,8-8s8,3.578,8,8v16
				C280,364.422,276.422,368,272,368z"/>
		</g>
	</g>
	<g>
		<g>
			<path style="fill:#8A8895;" d="M296,368c-4.422,0-8-3.578-8-8v-16c0-4.422,3.578-8,8-8s8,3.578,8,8v16
				C304,364.422,300.422,368,296,368z"/>
		</g>
	</g>
	<g>
		<g>
			<path style="fill:#8A8895;" d="M328,368c-4.422,0-8-3.578-8-8v-16c0-4.422,3.578-8,8-8s8,3.578,8,8v16
				C336,364.422,332.422,368,328,368z"/>
		</g>
	</g>
	<g>
		<g>
			<path style="fill:#8A8895;" d="M360,368c-4.422,0-8-3.578-8-8v-16c0-4.422,3.578-8,8-8s8,3.578,8,8v16
				C368,364.422,364.422,368,360,368z"/>
		</g>
	</g>
	<g>
		<g>
			<path style="fill:#8A8895;" d="M384,368c-4.422,0-8-3.578-8-8v-16c0-4.422,3.578-8,8-8s8,3.578,8,8v16
				C392,364.422,388.422,368,384,368z"/>
		</g>
	</g>
	<g>
		<g>
			<path style="fill:#8A8895;" d="M248,368c-4.422,0-8-3.578-8-8v-16c0-4.422,3.578-8,8-8s8,3.578,8,8v16
				C256,364.422,252.422,368,248,368z"/>
		</g>
	</g>
</g>
<g>
</g>
<g>
</g>
<g>
</g>
<g>
</g>
<g>
</g>
<g>
</g>
<g>
</g>
<g>
</g>
<g>
</g>
<g>
</g>
<g>
</g>
<g>
</g>
<g>
</g>
<g>
</g>
<g>
</g>
</svg>
