<svg class="pagarme-logo"
     id="pagarme-logo"
     xmlns="http://www.w3.org/2000/svg"
     style="transform: matrix(0.769231, 0, 0, 0.769231, 0, 0); transform-origin: 50% 50%; cursor: move; max-height: none; transition: transform 200ms ease-in-out 0s;" width="280" height="280" viewBox="0 0 2800 2800">
    <g id="l76oM6lmaQkxZNO7raUWN9N" fill="rgb(140,185,66)" style="transform: none;">
        <g style="transform: none;">
            <path id="pVGxu2wnv" d="M625 2764 c-81 -13 -150 -39 -283 -109 -57 -29 -175 -155 -217 -229 -66 -119 -87 -187 -92 -313 -6 -128 5 -204 45 -296 41 -97 89 -167 163 -239 94 -91 181 -141 303 -173 126 -32 219 -33 348 -1 147 35 288 127 375 243 15 21 30 40 33 43 3 3 20 33 38 67 98 185 96 460 -4 641 -94 167 -260 300 -437 348 -54 15 -220 26 -272 18z"></path>
            <path id="pSGMwfw8m" d="M2110 1995 c0 -137 -45 -321 -122 -495 -132 -299 -394 -561 -694 -694 -169 -75 -297 -108 -472 -121 l-92 -8 0 -328 0 -329 78 0 c162 0 358 38 580 111 129 43 357 154 451 220 31 21 76 53 101 70 229 160 478 456 618 734 81 162 121 274 171 485 25 102 51 315 51 418 0 9 -74 12 -335 12 l-335 0 0 -75z"></path>
        </g>
    </g>
</svg>
