<?xml version="1.0" encoding="utf-8"?>
<svg version="1.1" width="128px" height="128px" viewBox="0 0 699.088 700.726" xmlns="http://www.w3.org/2000/svg">
    <g transform="matrix(1, 0, 0, 1, -191.344208, -190.320953)" fill="#30a46c">
        <path transform="matrix(1,0,0,-1,716.7754,727.1104)" d="M0 0H169.342C169.62 6.928 169.86 13.893 169.86 20.895 169.534 303.99-59.721 533.487-342.816 534.11V364.953C-153.01 364.666 .698 210.701 .667 20.895 .703 13.948 .427 6.928 0 0"/>
        <path transform="matrix(1,0,0,-1,193.9985,706.2754)" d="M0 0C0-100.24 81.261-181.505 181.505-181.505 281.745-181.505 363.006-100.24 363.006 0 363.006 100.239 281.745 181.504 181.505 181.504 81.261 181.504 0 100.239 0 0"/>
    </g>
</svg>
