<svg width="15" height="15" viewBox="0 0 15 15" fill="none" xmlns="http://www.w3.org/2000/svg">
<path d="M7.5 0C6.01664 0 4.56659 0.439867 3.33323 1.26398C2.09986 2.08809 1.13856 3.25943 0.570907 4.62987C0.00324963 6.00032 -0.145275 7.50832 0.144114 8.96317C0.433503 10.418 1.14781 11.7544 2.1967 12.8033C3.2456 13.8522 4.58197 14.5665 6.03683 14.8559C7.49168 15.1453 8.99968 14.9967 10.3701 14.4291C11.7406 13.8614 12.9119 12.9001 13.736 11.6668C14.5601 10.4334 15 8.98336 15 7.5C14.9978 5.51155 14.2069 3.60518 12.8009 2.19914C11.3948 0.793098 9.48845 0.00221143 7.5 0ZM7.5 13.5C6.31331 13.5 5.15328 13.1481 4.16658 12.4888C3.17989 11.8295 2.41085 10.8925 1.95673 9.7961C1.5026 8.69974 1.38378 7.49334 1.61529 6.32946C1.8468 5.16557 2.41825 4.09647 3.25736 3.25736C4.09648 2.41824 5.16558 1.8468 6.32946 1.61529C7.49335 1.38378 8.69975 1.5026 9.7961 1.95672C10.8925 2.41085 11.8295 3.17988 12.4888 4.16658C13.1481 5.15327 13.5 6.31331 13.5 7.5C13.4982 9.09074 12.8655 10.6158 11.7406 11.7406C10.6158 12.8654 9.09074 13.4982 7.5 13.5ZM7.5 7.125C7.30109 7.125 7.11032 7.20402 6.96967 7.34467C6.82902 7.48532 6.75 7.67608 6.75 7.875V10.125C6.75 10.3239 6.82902 10.5147 6.96967 10.6553C7.11032 10.796 7.30109 10.875 7.5 10.875C7.69891 10.875 7.88968 10.796 8.03033 10.6553C8.17098 10.5147 8.25 10.3239 8.25 10.125V7.875C8.25 7.67608 8.17098 7.48532 8.03033 7.34467C7.88968 7.20402 7.69891 7.125 7.5 7.125ZM7.5 4.125C7.31458 4.125 7.13333 4.17998 6.97916 4.283C6.82498 4.38601 6.70482 4.53243 6.63387 4.70373C6.56291 4.87504 6.54434 5.06354 6.58052 5.2454C6.61669 5.42725 6.70598 5.5943 6.83709 5.72541C6.9682 5.85652 7.13525 5.94581 7.31711 5.98198C7.49896 6.01816 7.68746 5.99959 7.85877 5.92864C8.03007 5.85768 8.17649 5.73752 8.2795 5.58335C8.38252 5.42917 8.4375 5.24792 8.4375 5.0625C8.4375 4.81386 8.33873 4.5754 8.16292 4.39959C7.9871 4.22377 7.74864 4.125 7.5 4.125Z" fill="white"/>
</svg>
