<svg width="58" height="32" viewBox="0 0 58 32" fill="none" xmlns="http://www.w3.org/2000/svg">
<rect width="58" height="32" rx="2" fill="#D7DAE0"/>
<g clip-path="url(#clip0)">
<rect width="16" height="16" transform="translate(8 8)" fill="#D7DAE0"/>
<path d="M11.5223 20.2399C12.1501 20.2399 12.7405 19.9954 13.1843 19.5517L15.5842 17.1519C15.7526 16.9829 16.0463 16.9835 16.2147 17.1519L18.6233 19.5605C19.0673 20.0042 19.6576 20.2486 20.2854 20.2486H20.7583L17.7189 23.2881C16.7697 24.2373 15.2306 24.2373 14.2814 23.2881L11.2332 20.2399H11.5223Z" fill="#323539"/>
<path d="M20.2854 11.7513C19.6576 11.7513 19.0672 11.9958 18.6234 12.4395L16.2148 14.8485C16.0413 15.022 15.758 15.0227 15.5841 14.8483L13.1843 12.4482C12.7404 12.0045 12.1501 11.7601 11.5223 11.7601H11.2332L14.2813 8.71191C15.2306 7.76263 16.7696 7.76263 17.7189 8.71191L20.7582 11.7513H20.2854Z" fill="#323539"/>
<path d="M8.71195 14.2813L10.5539 12.4392C10.5945 12.4555 10.6384 12.4656 10.6847 12.4656H11.5222C11.9552 12.4656 12.379 12.6412 12.6849 12.9473L15.0848 15.3473C15.3093 15.5718 15.6043 15.6843 15.8992 15.6843C16.1943 15.6843 16.4891 15.5718 16.7137 15.3475L19.1225 12.9386C19.4285 12.6325 19.8522 12.4569 20.2853 12.4569H21.315C21.3589 12.4569 21.4 12.4465 21.4388 12.4319L23.2881 14.2813C24.2373 15.2305 24.2373 16.7695 23.2881 17.7189L21.4388 19.5682C21.4001 19.5536 21.3589 19.5432 21.315 19.5432H20.2853C19.8522 19.5432 19.4285 19.3676 19.1225 19.0615L16.7139 16.6528C16.2786 16.2178 15.5197 16.2176 15.0848 16.653L12.6849 19.0527C12.379 19.3589 11.9552 19.5345 11.5222 19.5345H10.6847C10.6383 19.5345 10.5945 19.5445 10.5539 19.5608L8.71195 17.7189C7.76269 16.7695 7.76269 15.2305 8.71195 14.2813Z" fill="#323539"/>
</g>
<path d="M34.1152 16.6602V20H32.9902V11.4688H36.1367C37.0703 11.4688 37.8008 11.707 38.3281 12.1836C38.8594 12.6602 39.125 13.291 39.125 14.0762C39.125 14.9043 38.8652 15.543 38.3457 15.9922C37.8301 16.4375 37.0898 16.6602 36.125 16.6602H34.1152ZM34.1152 15.7402H36.1367C36.7383 15.7402 37.1992 15.5996 37.5195 15.3184C37.8398 15.0332 38 14.623 38 14.0879C38 13.5801 37.8398 13.1738 37.5195 12.8691C37.1992 12.5645 36.7598 12.4062 36.2012 12.3945H34.1152V15.7402ZM41.8984 20H40.8144V13.6602H41.8984V20ZM40.7265 11.9785C40.7265 11.8027 40.7792 11.6543 40.8847 11.5332C40.9941 11.4121 41.1542 11.3516 41.3652 11.3516C41.5761 11.3516 41.7362 11.4121 41.8456 11.5332C41.955 11.6543 42.0097 11.8027 42.0097 11.9785C42.0097 12.1543 41.955 12.3008 41.8456 12.418C41.7362 12.5352 41.5761 12.5938 41.3652 12.5938C41.1542 12.5938 40.9941 12.5352 40.8847 12.418C40.7792 12.3008 40.7265 12.1543 40.7265 11.9785ZM46.0955 15.9746L47.5018 13.6602H48.7674L46.6932 16.7949L48.8319 20H47.578L46.1131 17.627L44.6483 20H43.3885L45.5272 16.7949L43.453 13.6602H44.7069L46.0955 15.9746Z" fill="black"/>
<defs>
<clipPath id="clip0">
<rect width="16" height="16" fill="white" transform="translate(8 8)"/>
</clipPath>
</defs>
</svg>
